<!-- Generated by IcoMoon.io -->
<svg version="1.1" xmlns="http://www.w3.org/2000/svg" width="768" height="768" viewBox="0 0 768 768">
<title></title>
<g id="icomoon-ignore">
</g>
<path fill="#000" d="M639.872 432.224l-191.872-109.632v-190.592c0-26.464-21.536-48-48-48s-48 21.536-48 48v190.592l-191.872 109.632c-14.048 8.032-19.904 25.28-13.632 40.192 6.304 14.912 22.752 22.816 38.272 18.336l167.232-47.744v142.432l-52 41.6c-12.384 9.92-15.616 27.392-7.648 41.088s24.832 19.456 39.52 13.6l68.128-27.264 68.128 27.264c3.872 1.536 7.904 2.272 11.872 2.272 11.104 0 21.792-5.792 27.648-15.904 7.968-13.696 4.704-31.2-7.648-41.088l-52-41.6v-142.432l167.232 47.776c2.912 0.832 5.888 1.248 8.768 1.248 12.608 0 24.384-7.456 29.504-19.584 6.272-14.912 0.448-32.16-13.632-40.192zM400 140c-8.832 0-16-7.168-16-16s7.168-16 16-16 16 7.168 16 16-7.168 16-16 16z"></path>
</svg>
